# xmcd
#
# Track frame offsets: 
#        150
#        37674
#        71854
#        92385
#        119896
#        137250
#        153191
#        165289
#        174061
#        186681
#        202552
#
# Disc length: 2912 seconds
#
# Revision: 1
# Processed by: cddbd v1.5.2PL0 Copyright (c) Steve Scherf et al.
# Submitted via: ExactAudioCopy v0.99pb4
#
DISCID=7f0b5e0b
DTITLE=Paquito D'Rivera - The Lost Sessions
DYEAR=2002
DGENRE=Jazz
TTITLE0=I Want To Talk About You
TTITLE1=Mi pequeña Anna
TTITLE2=Stella By Starlight
TTITLE3=Canción a Palia
TTITLE4=La Patica
TTITLE5=Para tí llevo más
TTITLE6=Mirando caer la lluvia
TTITLE7=Pulgarcito en Guanabara
TTITLE8=Bossa del pico eléctrico
TTITLE9=Hay solución
TTITLE10=Te quiero más y tú no estás
EXTD=
EXTT0=
EXTT1=
EXTT2=
EXTT3=
EXTT4=
EXTT5=
EXTT6=
EXTT7=
EXTT8=
EXTT9=
EXTT10=
PLAYORDER=
